<mxfile host="app.diagrams.net" agent="Mozilla/5.0 (Windows NT 10.0; Win64; x64) AppleWebKit/537.36 (KHTML, like Gecko) Chrome/131.0.0.0 Safari/537.36 Edg/131.0.0.0" version="24.9.3">
  <diagram name="Страница — 1" id="l3l8ryNABg0c6hfj7hHB">
    <mxGraphModel dx="184" dy="361" grid="1" gridSize="10" guides="1" tooltips="1" connect="1" arrows="1" fold="1" page="1" pageScale="1" pageWidth="1169" pageHeight="827" math="0" shadow="0">
      <root>
        <mxCell id="0" />
        <mxCell id="1" parent="0" />
        <mxCell id="oYod2DeekB2kwH-i7KGN-6" value="" style="edgeStyle=orthogonalEdgeStyle;rounded=0;orthogonalLoop=1;jettySize=auto;html=1;strokeWidth=2;fontSize=17;fontFamily=Times New Roman;" edge="1" parent="1" source="oYod2DeekB2kwH-i7KGN-1" target="oYod2DeekB2kwH-i7KGN-2">
          <mxGeometry relative="1" as="geometry" />
        </mxCell>
        <mxCell id="oYod2DeekB2kwH-i7KGN-1" value="Исходный код" style="ellipse;whiteSpace=wrap;html=1;fontSize=17;fontFamily=Times New Roman;" vertex="1" parent="1">
          <mxGeometry x="80" y="270" width="120" height="60" as="geometry" />
        </mxCell>
        <mxCell id="oYod2DeekB2kwH-i7KGN-7" style="edgeStyle=orthogonalEdgeStyle;rounded=0;orthogonalLoop=1;jettySize=auto;html=1;exitX=1;exitY=0.25;exitDx=0;exitDy=0;entryX=0;entryY=0.5;entryDx=0;entryDy=0;strokeWidth=2;fontSize=17;fontFamily=Times New Roman;" edge="1" parent="1" source="oYod2DeekB2kwH-i7KGN-2" target="oYod2DeekB2kwH-i7KGN-4">
          <mxGeometry relative="1" as="geometry">
            <mxPoint x="430" y="275.2962962962963" as="targetPoint" />
            <Array as="points">
              <mxPoint x="400" y="270" />
            </Array>
          </mxGeometry>
        </mxCell>
        <mxCell id="oYod2DeekB2kwH-i7KGN-8" style="edgeStyle=orthogonalEdgeStyle;rounded=0;orthogonalLoop=1;jettySize=auto;html=1;exitX=1;exitY=0.75;exitDx=0;exitDy=0;entryX=0;entryY=0.5;entryDx=0;entryDy=0;strokeWidth=2;fontSize=17;fontFamily=Times New Roman;" edge="1" parent="1" source="oYod2DeekB2kwH-i7KGN-2" target="oYod2DeekB2kwH-i7KGN-3">
          <mxGeometry relative="1" as="geometry">
            <Array as="points">
              <mxPoint x="400" y="330" />
            </Array>
          </mxGeometry>
        </mxCell>
        <mxCell id="oYod2DeekB2kwH-i7KGN-2" value="Лексический анализатор" style="rounded=0;whiteSpace=wrap;html=1;fontSize=17;fontFamily=Times New Roman;" vertex="1" parent="1">
          <mxGeometry x="240" y="250" width="160" height="100" as="geometry" />
        </mxCell>
        <mxCell id="oYod2DeekB2kwH-i7KGN-3" value="Таблица идентификаторов" style="ellipse;whiteSpace=wrap;html=1;fontSize=17;fontFamily=Times New Roman;" vertex="1" parent="1">
          <mxGeometry x="440" y="300" width="160" height="60" as="geometry" />
        </mxCell>
        <mxCell id="oYod2DeekB2kwH-i7KGN-4" value="Таблица лексем" style="ellipse;whiteSpace=wrap;html=1;fontSize=17;fontFamily=Times New Roman;" vertex="1" parent="1">
          <mxGeometry x="440" y="240" width="160" height="60" as="geometry" />
        </mxCell>
      </root>
    </mxGraphModel>
  </diagram>
</mxfile>
